# xmcd
#
# Track frame offsets: 
#        150
#        26502
#        42427
#        59747
#        77380
#        93610
#        113745
#        161005
#        180615
#        215985
#        239085
#        274425
#
# Disc length: 4038 seconds
#
# Revision: 3
# Processed by: cddbd v1.5.2PL0 Copyright (c) Steve Scherf et al.
# Submitted via: ExactAudioCopyFreeDBPlugin 1.0
#
DISCID=b30fc40c
DTITLE=Irek Dudek - A new vision of blues
DYEAR=2000
DGENRE=Symphonic Blues
TTITLE0=Everyday I Have The Blues
TTITLE1=Tell Me Pretty Baby
TTITLE2=Ain't No Need Her
TTITLE3=Za Dużo By Umrzeć Za Mało By Żyć
TTITLE4=Od Nowa
TTITLE5=From Alojz To Alex
TTITLE6=Blues In A
TTITLE7=Kameralny Blues
TTITLE8=Straight Blues
TTITLE9=Przebitka
TTITLE10=Gloria
TTITLE11=(brak tytu³u)
EXTD=
EXTT0=(King)
EXTT1=(Traditional)
EXTT2=(Traditional)
EXTT3=(Dudek - Dusza)
EXTT4=(Dudek - Dusza)
EXTT5=(Dudek)
EXTT6=(Dudek)
EXTT7=(Dudek-Daukszewicz)
EXTT8=(Dudek/Harasymowicz)
EXTT9=(Dudek)
EXTT10=(Morrison)
EXTT11=
PLAYORDER=
